<?xml version="1.0" encoding="UTF-8"?>
<svg width="110px" height="90px" viewBox="0 0 110 90" version="1.1" xmlns="http://www.w3.org/2000/svg" xmlns:xlink="http://www.w3.org/1999/xlink">
    <!-- Generator: Sketch 45.2 (43514) - http://www.bohemiancoding.com/sketch -->
    <title>bush 5</title>
    <desc>Created with Sketch.</desc>
    <defs></defs>
    <g id="Page-1-Copy" stroke="none" stroke-width="1" fill="none" fill-rule="evenodd">
        <g id="Artboard" transform="translate(-883.000000, -568.000000)">
            <g id="bush-5" transform="translate(883.000000, 568.000000)">
                <path d="M86.6600109,43.237 L86.6600109,40.73 C88.5060109,37.40025 89.5607609,33.5705 89.5607609,29.4935 C89.5607609,16.6735 79.1682609,6.281 66.3482609,6.281 C64.1177609,6.281 61.9635109,6.60225 59.9220109,7.18925 C55.6952609,2.76225 49.7400109,0 43.1360109,0 C30.3162609,0 19.9235109,10.39225 19.9235109,23.2125 C19.9235109,27.889 21.3112609,32.2395 23.6907609,35.88325 L23.6907609,43.237 C10.8710109,43.237 0.47826087,53.62925 0.47826087,66.4495 C0.47826087,79.269 10.8707609,89.662 23.6907609,89.662 L86.6600109,89.662 C99.4797609,89.662 109.872511,79.269 109.872511,66.4495 C109.872511,53.6295 99.4797609,43.237 86.6600109,43.237 L86.6600109,43.237 Z" id="Shape" fill="#218649"></path>
                <path d="M61.3613463,79.5332582 C63.7313463,77.1635082 66.0870963,69.4380082 65.6928463,69.0435082 C65.2983463,68.6490082 57.5728463,71.0047582 55.2030963,73.3750082 C52.8330963,75.7455082 52.2900963,79.0447582 53.9908463,80.7455082 C55.6908463,82.4457582 58.9910963,81.9035082 61.3613463,79.5332582 L61.3613463,79.5332582 Z" id="Shape" fill="#7CDFA8"></path>
                <path d="M40.3613463,73.5332582 C42.7313463,71.1635082 45.0870963,63.4380082 44.6928463,63.0435082 C44.2983463,62.6490082 36.5728463,65.0047582 34.2030963,67.3750082 C31.8330963,69.7455082 31.2900963,73.0447582 32.9908463,74.7455082 C34.6908463,76.4457582 37.9910963,75.9035082 40.3613463,73.5332582 L40.3613463,73.5332582 Z" id="Shape-Copy-5" fill="#7CDFA8"></path>
                <path d="M40.3613463,45.5332582 C42.7313463,43.1635082 45.0870963,35.4380082 44.6928463,35.0435082 C44.2983463,34.6490082 36.5728463,37.0047582 34.2030963,39.3750082 C31.8330963,41.7455082 31.2900963,45.0447582 32.9908463,46.7455082 C34.6908463,48.4457582 37.9910963,47.9035082 40.3613463,45.5332582 L40.3613463,45.5332582 Z" id="Shape-Copy-6" fill="#7CDFA8"></path>
                <path d="M63.3613463,29.5332582 C65.7313463,27.1635082 68.0870963,19.4380082 67.6928463,19.0435082 C67.2983463,18.6490082 59.5728463,21.0047582 57.2030963,23.3750082 C54.8330963,25.7455082 54.2900963,29.0447582 55.9908463,30.7455082 C57.6908463,32.4457582 60.9910963,31.9035082 63.3613463,29.5332582 L63.3613463,29.5332582 Z" id="Shape-Copy-7" fill="#7CDFA8"></path>
                <path d="M79.3613463,58.5332582 C81.7313463,56.1635082 84.0870963,48.4380082 83.6928463,48.0435082 C83.2983463,47.6490082 75.5728463,50.0047582 73.2030963,52.3750082 C70.8330963,54.7455082 70.2900963,58.0447582 71.9908463,59.7455082 C73.6908463,61.4457582 76.9910963,60.9035082 79.3613463,58.5332582 L79.3613463,58.5332582 Z" id="Shape-Copy-8" fill="#7CDFA8"></path>
                <path d="M49.3749566,63.5332582 C47.0049566,61.1635082 44.6492066,53.4380082 45.0434566,53.0435082 C45.4379566,52.6490082 53.1634566,55.0047582 55.5332066,57.3750082 C57.9032066,59.7455082 58.4462066,63.0447582 56.7454566,64.7455082 C55.0454566,66.4460082 51.7452066,65.9037582 49.3749566,63.5332582 L49.3749566,63.5332582 Z" id="Shape" fill="#00AD68"></path>
                <path d="M17.3749566,73.5332582 C15.0049566,71.1635082 12.6492066,63.4380082 13.0434566,63.0435082 C13.4379566,62.6490082 21.1634566,65.0047582 23.5332066,67.3750082 C25.9032066,69.7455082 26.4462066,73.0447582 24.7454566,74.7455082 C23.0454566,76.4460082 19.7452066,75.9037582 17.3749566,73.5332582 L17.3749566,73.5332582 Z" id="Shape-Copy" fill="#00AD68"></path>
                <path d="M88.3749566,76.5332582 C86.0049566,74.1635082 83.6492066,66.4380082 84.0434566,66.0435082 C84.4379566,65.6490082 92.1634566,68.0047582 94.5332066,70.3750082 C96.9032066,72.7455082 97.4462066,76.0447582 95.7454566,77.7455082 C94.0454566,79.4460082 90.7452066,78.9037582 88.3749566,76.5332582 L88.3749566,76.5332582 Z" id="Shape-Copy-2" fill="#00AD68"></path>
                <path d="M36.3749566,27.5332582 C34.0049566,25.1635082 31.6492066,17.4380082 32.0434566,17.0435082 C32.4379566,16.6490082 40.1634566,19.0047582 42.5332066,21.3750082 C44.9032066,23.7455082 45.4462066,27.0447582 43.7454566,28.7455082 C42.0454566,30.4460082 38.7452066,29.9037582 36.3749566,27.5332582 L36.3749566,27.5332582 Z" id="Shape-Copy-3" fill="#00AD68"></path>
                <path d="M75.3749566,40.5332582 C73.0049566,38.1635082 70.6492066,30.4380082 71.0434566,30.0435082 C71.4379566,29.6490082 79.1634566,32.0047582 81.5332066,34.3750082 C83.9032066,36.7455082 84.4462066,40.0447582 82.7454566,41.7455082 C81.0454566,43.4460082 77.7452066,42.9037582 75.3749566,40.5332582 L75.3749566,40.5332582 Z" id="Shape-Copy-4" fill="#00AD68"></path>
            </g>
        </g>
    </g>
</svg>