<?xml version="1.0" encoding="UTF-8"?>
<svg width="439px" height="279px" viewBox="0 0 439 279" version="1.1" xmlns="http://www.w3.org/2000/svg" xmlns:xlink="http://www.w3.org/1999/xlink">
    <!-- Generator: Sketch 45.2 (43514) - http://www.bohemiancoding.com/sketch -->
    <title>road</title>
    <desc>Created with Sketch.</desc>
    <defs>
        <rect id="path-1" x="0" y="0" width="439" height="279"></rect>
    </defs>
    <g id="Page-1-Copy" stroke="none" stroke-width="1" fill="none" fill-rule="evenodd">
        <g id="Artboard" transform="translate(-99.000000, -887.000000)">
            <g id="road" transform="translate(99.000000, 887.000000)">
                <mask id="mask-2" fill="white">
                    <use xlink:href="#path-1"></use>
                </mask>
                <use id="Mask" fill="#D8D8D8" xlink:href="#path-1"></use>
                <g id="Group-4" mask="url(#mask-2)">
                    <g transform="translate(-4.000000, 1.000000)">
                        <path d="M444.1395,75.2941176 L3.8605,75.2941176 C1.736875,75.2941176 0,69.2196928 0,61.7964152 L0,13.4977024 C0,6.0744249 1.736875,0 3.8605,0 L444.1395,0 C446.264,0 448,6.0744249 448,13.4977024 L448,61.7964152 C448,69.2196928 446.264,75.2941176 444.1395,75.2941176 Z" id="Shape-Copy-9" fill="#218649"></path>
                        <path d="M444.1395,75 L3.8605,75 C1.736875,75 0,72.2570175 0,68.9049437 L0,47.0950563 C0,43.7429825 1.736875,41 3.8605,41 L444.1395,41 C446.264,41 448,43.7429825 448,47.0950563 L448,68.9049437 C448,72.2570175 446.264,75 444.1395,75 Z" id="Shape-Copy-10" fill="#C9A07C"></path>
                        <g id="Group-3" stroke-width="1" fill="none" transform="translate(178.000000, 42.000000)" opacity="0.1">
                            <circle id="Oval" fill="#000000" cx="1.75987311" cy="3.52020657" r="1.75987311"></circle>
                            <circle id="Oval" fill="#000000" cx="20.4473042" cy="5.28007968" r="1.75987311"></circle>
                            <circle id="Oval" fill="#000000" cx="30.7556585" cy="10.746136" r="1.75987311"></circle>
                            <circle id="Oval" fill="#000000" cx="38.1726284" cy="1.75987311" r="1.75987311"></circle>
                            <circle id="Oval" fill="#000000" cx="11.3961336" cy="14.2658822" r="1.75987311"></circle>
                        </g>
                        <g id="Group-3-Copy-9" stroke-width="1" fill="none" transform="translate(343.000000, 43.000000)" opacity="0.1">
                            <circle id="Oval" fill="#000000" cx="1.75987311" cy="3.52020657" r="1.75987311"></circle>
                            <circle id="Oval" fill="#000000" cx="20.4473042" cy="5.28007968" r="1.75987311"></circle>
                            <circle id="Oval" fill="#000000" cx="30.7556585" cy="10.746136" r="1.75987311"></circle>
                            <circle id="Oval" fill="#000000" cx="38.1726284" cy="1.75987311" r="1.75987311"></circle>
                            <circle id="Oval" fill="#000000" cx="11.3961336" cy="14.2658822" r="1.75987311"></circle>
                        </g>
                        <g id="Group-3-Copy-7" stroke-width="1" fill="none" transform="translate(187.000000, 60.000000)" opacity="0.1">
                            <circle id="Oval" fill="#000000" cx="1.75987311" cy="3.52020657" r="1.75987311"></circle>
                            <circle id="Oval" fill="#000000" cx="20.4473042" cy="5.28007968" r="1.75987311"></circle>
                            <circle id="Oval" fill="#000000" cx="30.7556585" cy="10.746136" r="1.75987311"></circle>
                            <circle id="Oval" fill="#000000" cx="38.1726284" cy="1.75987311" r="1.75987311"></circle>
                            <circle id="Oval" fill="#000000" cx="11.3961336" cy="14.2658822" r="1.75987311"></circle>
                        </g>
                        <g id="Group-3-Copy-10" stroke-width="1" fill="none" transform="translate(364.000000, 60.000000)" opacity="0.1">
                            <circle id="Oval" fill="#000000" cx="1.75987311" cy="3.52020657" r="1.75987311"></circle>
                            <circle id="Oval" fill="#000000" cx="20.4473042" cy="5.28007968" r="1.75987311"></circle>
                            <circle id="Oval" fill="#000000" cx="30.7556585" cy="10.746136" r="1.75987311"></circle>
                            <circle id="Oval" fill="#000000" cx="38.1726284" cy="1.75987311" r="1.75987311"></circle>
                            <circle id="Oval" fill="#000000" cx="11.3961336" cy="14.2658822" r="1.75987311"></circle>
                        </g>
                        <g id="Group-3-Copy-11" stroke-width="1" fill="none" transform="translate(398.000000, 47.000000)" opacity="0.1">
                            <circle id="Oval" fill="#000000" cx="1.75987311" cy="3.52020657" r="1.75987311"></circle>
                            <circle id="Oval" fill="#000000" cx="20.4473042" cy="5.28007968" r="1.75987311"></circle>
                            <circle id="Oval" fill="#000000" cx="30.7556585" cy="10.746136" r="1.75987311"></circle>
                            <circle id="Oval" fill="#000000" cx="38.1726284" cy="1.75987311" r="1.75987311"></circle>
                            <circle id="Oval" fill="#000000" cx="11.3961336" cy="14.2658822" r="1.75987311"></circle>
                        </g>
                        <g id="Group-3-Copy-3" stroke-width="1" fill="none" transform="translate(128.000000, 51.000000)" opacity="0.1">
                            <circle id="Oval" fill="#000000" cx="1.75987311" cy="3.52020657" r="1.75987311"></circle>
                            <circle id="Oval" fill="#000000" cx="20.4473042" cy="5.28007968" r="1.75987311"></circle>
                            <circle id="Oval" fill="#000000" cx="30.7556585" cy="10.746136" r="1.75987311"></circle>
                            <circle id="Oval" fill="#000000" cx="38.1726284" cy="1.75987311" r="1.75987311"></circle>
                            <circle id="Oval" fill="#000000" cx="11.3961336" cy="14.2658822" r="1.75987311"></circle>
                        </g>
                        <g id="Group-3-Copy-4" stroke-width="1" fill="none" transform="translate(71.000000, 43.000000)" opacity="0.1">
                            <circle id="Oval" fill="#000000" cx="1.75987311" cy="3.52020657" r="1.75987311"></circle>
                            <circle id="Oval" fill="#000000" cx="20.4473042" cy="5.28007968" r="1.75987311"></circle>
                            <circle id="Oval" fill="#000000" cx="30.7556585" cy="10.746136" r="1.75987311"></circle>
                            <circle id="Oval" fill="#000000" cx="38.1726284" cy="1.75987311" r="1.75987311"></circle>
                            <circle id="Oval" fill="#000000" cx="11.3961336" cy="14.2658822" r="1.75987311"></circle>
                        </g>
                        <g id="Group-3-Copy-12" stroke-width="1" fill="none" transform="translate(91.000000, 60.000000)" opacity="0.1">
                            <circle id="Oval" fill="#000000" cx="1.75987311" cy="3.52020657" r="1.75987311"></circle>
                            <circle id="Oval" fill="#000000" cx="20.4473042" cy="5.28007968" r="1.75987311"></circle>
                            <circle id="Oval" fill="#000000" cx="30.7556585" cy="10.746136" r="1.75987311"></circle>
                            <circle id="Oval" fill="#000000" cx="38.1726284" cy="1.75987311" r="1.75987311"></circle>
                            <circle id="Oval" fill="#000000" cx="11.3961336" cy="14.2658822" r="1.75987311"></circle>
                        </g>
                        <g id="Group-3-Copy-5" stroke-width="1" fill="none" transform="translate(24.000000, 58.000000)" opacity="0.1">
                            <circle id="Oval" fill="#000000" cx="1.75987311" cy="3.52020657" r="1.75987311"></circle>
                            <circle id="Oval" fill="#000000" cx="20.4473042" cy="5.28007968" r="1.75987311"></circle>
                            <circle id="Oval" fill="#000000" cx="30.7556585" cy="10.746136" r="1.75987311"></circle>
                            <circle id="Oval" fill="#000000" cx="38.1726284" cy="1.75987311" r="1.75987311"></circle>
                            <circle id="Oval" fill="#000000" cx="11.3961336" cy="14.2658822" r="1.75987311"></circle>
                        </g>
                        <g id="Group-3-Copy-6" stroke-width="1" fill="none" transform="translate(9.000000, 43.000000)" opacity="0.1">
                            <circle id="Oval" fill="#000000" cx="1.75987311" cy="3.52020657" r="1.75987311"></circle>
                            <circle id="Oval" fill="#000000" cx="20.4473042" cy="5.28007968" r="1.75987311"></circle>
                            <circle id="Oval" fill="#000000" cx="30.7556585" cy="10.746136" r="1.75987311"></circle>
                            <circle id="Oval" fill="#000000" cx="38.1726284" cy="1.75987311" r="1.75987311"></circle>
                            <circle id="Oval" fill="#000000" cx="11.3961336" cy="14.2658822" r="1.75987311"></circle>
                        </g>
                        <g id="Group-3-Copy" stroke-width="1" fill="none" transform="translate(227.000000, 51.000000)" opacity="0.1">
                            <circle id="Oval" fill="#000000" cx="1.75987311" cy="3.52020657" r="1.75987311"></circle>
                            <circle id="Oval" fill="#000000" cx="20.4473042" cy="5.28007968" r="1.75987311"></circle>
                            <circle id="Oval" fill="#000000" cx="30.7556585" cy="10.746136" r="1.75987311"></circle>
                            <circle id="Oval" fill="#000000" cx="38.1726284" cy="1.75987311" r="1.75987311"></circle>
                            <circle id="Oval" fill="#000000" cx="11.3961336" cy="14.2658822" r="1.75987311"></circle>
                        </g>
                        <g id="Group-3-Copy-2" stroke-width="1" fill="none" transform="translate(276.000000, 43.000000)" opacity="0.1">
                            <circle id="Oval" fill="#000000" cx="1.75987311" cy="3.52020657" r="1.75987311"></circle>
                            <circle id="Oval" fill="#000000" cx="20.4473042" cy="5.28007968" r="1.75987311"></circle>
                            <circle id="Oval" fill="#000000" cx="30.7556585" cy="10.746136" r="1.75987311"></circle>
                            <circle id="Oval" fill="#000000" cx="38.1726284" cy="1.75987311" r="1.75987311"></circle>
                            <circle id="Oval" fill="#000000" cx="11.3961336" cy="14.2658822" r="1.75987311"></circle>
                        </g>
                        <g id="Group-3-Copy-8" stroke-width="1" fill="none" transform="translate(303.000000, 60.000000)" opacity="0.1">
                            <circle id="Oval" fill="#000000" cx="1.75987311" cy="3.52020657" r="1.75987311"></circle>
                            <circle id="Oval" fill="#000000" cx="20.4473042" cy="5.28007968" r="1.75987311"></circle>
                            <circle id="Oval" fill="#000000" cx="30.7556585" cy="10.746136" r="1.75987311"></circle>
                            <circle id="Oval" fill="#000000" cx="38.1726284" cy="1.75987311" r="1.75987311"></circle>
                            <circle id="Oval" fill="#000000" cx="11.3961336" cy="14.2658822" r="1.75987311"></circle>
                        </g>
                        <g id="Group-2-Copy" stroke-width="1" fill="none" transform="translate(0.000000, 75.000000)">
                            <rect id="Rectangle-2" fill="#4A4A4A" x="0" y="5.66371681" width="453" height="115.539823"></rect>
                            <rect id="Rectangle" fill="#D8D8D8" x="0" y="0" width="448" height="6.79646018" rx="3.39823009"></rect>
                            <rect id="Rectangle-Copy" fill="#D8D8D8" x="0" y="121.20354" width="448" height="6.79646018" rx="3.39823009"></rect>
                            <g id="Group" transform="translate(9.000000, 48.707965)" fill="#FFB819">
                                <rect id="Rectangle-Copy-2" x="0" y="0" width="40" height="4.53097345" rx="2.26548673"></rect>
                                <rect id="Rectangle-Copy-4" x="130" y="0" width="40" height="4.53097345" rx="2.26548673"></rect>
                                <rect id="Rectangle-Copy-6" x="260" y="0" width="40" height="4.53097345" rx="2.26548673"></rect>
                                <rect id="Rectangle-Copy-3" x="65" y="0" width="40" height="4.53097345" rx="2.26548673"></rect>
                                <rect id="Rectangle-Copy-5" x="195" y="0" width="40" height="4.53097345" rx="2.26548673"></rect>
                                <rect id="Rectangle-Copy-7" x="325" y="0" width="40" height="4.53097345" rx="2.26548673"></rect>
                                <rect id="Rectangle-Copy-8" x="390" y="0" width="40" height="4.53097345" rx="2.26548673"></rect>
                            </g>
                        </g>
                        <path d="M444.1395,278.294118 L3.8605,278.294118 C1.736875,278.294118 0,272.219693 0,264.796415 L0,216.497702 C0,209.074425 1.736875,203 3.8605,203 L444.1395,203 C446.264,203 448,209.074425 448,216.497702 L448,264.796415 C448,272.219693 446.264,278.294118 444.1395,278.294118 Z" id="Shape" fill="#218649"></path>
                    </g>
                </g>
            </g>
        </g>
    </g>
</svg>