<?xml version="1.0" encoding="UTF-8"?>
<svg width="128px" height="233px" viewBox="0 0 128 233" version="1.1" xmlns="http://www.w3.org/2000/svg" xmlns:xlink="http://www.w3.org/1999/xlink">
    <!-- Generator: Sketch 45.2 (43514) - http://www.bohemiancoding.com/sketch -->
    <title>stop</title>
    <desc>Created with Sketch.</desc>
    <defs></defs>
    <g id="Page-1-Copy" stroke="none" stroke-width="1" fill="none" fill-rule="evenodd">
        <g id="Artboard" transform="translate(-727.000000, -60.000000)">
            <g id="stop" transform="translate(727.000000, 60.000000)">
                <g id="Group-2" transform="translate(47.000000, 109.000000)">
                    <rect id="SVGCleanerId_0_1_" fill="#BCBDBC" x="10.4838428" y="0" width="14.0112505" height="120.397977"></rect>
                    <rect id="Rectangle-path" fill="#000000" opacity="0.2" x="10.4838428" y="0" width="14.0112505" height="14.7360114"></rect>
                    <path d="M34.9836964,123.987269 L34.9836964,119.881878 C34.9836964,117.702835 33.2176124,115.936751 31.037776,115.936751 L3.9459204,115.936751 C1.7668774,115.936751 0,117.702835 0,119.881878 L0,123.987269 L34.9836964,123.987269 L34.9836964,123.987269 Z" id="Shape" fill="#2B3E49"></path>
                </g>
                <path d="M35.56375,112.98825 C33.266,112.98825 30.44625,111.36025 29.2975,109.3705 L0.8615,60.11775 C-0.28725,58.12775 -0.28725,54.872 0.8615,52.88225 L29.2975,3.62925 C30.44625,1.63925 33.26625,0.0115 35.56375,0.0115 L92.43575,0.0115 C94.7335,0.0115 97.55325,1.6395 98.702,3.62925 L127.13825,52.882 C128.287,54.872 128.287,58.12775 127.13825,60.1175 L98.702,109.3705 C97.55325,111.3605 94.73325,112.98825 92.43575,112.98825 L35.56375,112.98825 L35.56375,112.98825 Z" id="Shape" fill="#FF5959"></path>
                <path d="M91.40375,106.054 L36.596,106.054 C35.8495,106.054 35.16025,105.65575 34.78725,105.0095 L7.383,57.5445 C7.00975,56.89825 7.00975,56.10175 7.383,55.45575 L34.787,7.99075 C35.16025,7.34475 35.8495,6.94625 36.59575,6.94625 L91.4035,6.94625 C92.15,6.94625 92.83925,7.3445 93.21225,7.99075 L120.61625,55.45575 C120.9895,56.102 120.9895,56.8985 120.61625,57.5445 L93.2125,105.0095 C92.83925,105.65575 92.15,106.054 91.40375,106.054 L91.40375,106.054 Z M37.80175,101.87625 L90.19775,101.87625 L116.39575,56.5 L90.19775,11.12375 L37.80175,11.12375 L11.60375,56.5 L37.80175,101.87625 L37.80175,101.87625 Z" id="Shape" fill="#FFFFFF"></path>
                <path d="M28.57775,63.13075 C28.1975,62.85925 27.926,62.39775 27.926,61.8545 C27.926,60.9855 28.632,60.3065 29.50075,60.3065 C29.9625,60.3065 30.261,60.44225 30.47875,60.605 C32.0535,61.854 33.737,62.56 35.80075,62.56 C37.8645,62.56 39.1685,61.5825 39.1685,60.1705 L39.1685,60.11625 C39.1685,58.7585 38.40825,58.02525 34.878,57.21075 C30.83225,56.23325 28.55075,55.0385 28.55075,51.5355 L28.55075,51.48125 C28.55075,48.22275 31.26625,45.96875 35.04125,45.96875 C37.43075,45.96875 39.3585,46.5935 41.0695,47.734 C41.44975,47.95125 41.80275,48.413 41.80275,49.0645 C41.80275,49.9335 41.09675,50.6125 40.228,50.6125 C39.90225,50.6125 39.63025,50.53125 39.35875,50.368 C37.89225,49.4175 36.48025,48.929 34.987,48.929 C33.03175,48.929 31.8915,49.9335 31.8915,51.183 L31.8915,51.23725 C31.8915,52.7035 32.76025,53.35525 36.42625,54.2245 C40.445,55.202 42.50875,56.64125 42.50875,59.79125 L42.50875,59.8455 C42.50875,63.40275 39.71175,65.52075 35.72025,65.52075 C33.14,65.52025 30.69625,64.7055 28.57775,63.13075 L28.57775,63.13075 Z" id="Shape" fill="#FFFFFF"></path>
                <path d="M50.709,49.336 L46.0925,49.336 C45.22375,49.336 44.54475,48.63 44.54475,47.788 C44.54475,46.94625 45.22375,46.24 46.0925,46.24 L58.71975,46.24 C59.561,46.24 60.24,46.946 60.24,47.788 C60.24,48.62975 59.561,49.336 58.71975,49.336 L54.076,49.336 L54.076,63.72825 C54.076,64.6515 53.31575,65.3845 52.3925,65.3845 C51.4695,65.3845 50.709,64.6515 50.709,63.72825 L50.709,49.336 L50.709,49.336 Z" id="Shape" fill="#FFFFFF"></path>
                <path d="M61.7605,55.79875 L61.7605,55.7445 C61.7605,50.395 65.888,45.9145 71.72625,45.9145 C77.565,45.9145 81.63825,50.341 81.63825,55.6905 L81.63825,55.74475 C81.63825,61.0945 77.51075,65.57475 71.6725,65.57475 C65.8335,65.5745 61.7605,61.14825 61.7605,55.79875 L61.7605,55.79875 Z M78.135,55.79875 L78.135,55.7445 C78.135,52.0515 75.447,48.983 71.67225,48.983 C67.89725,48.983 65.26325,51.99725 65.26325,55.69025 L65.26325,55.7445 C65.26325,59.43775 67.95125,62.479 71.726,62.479 C75.50125,62.479 78.135,59.49175 78.135,55.79875 L78.135,55.79875 Z" id="Shape" fill="#FFFFFF"></path>
                <path d="M85.68325,47.924 C85.68325,46.9735 86.4165,46.2405 87.36675,46.2405 L93.17825,46.2405 C97.6315,46.2405 100.4015,48.766 100.4015,52.59475 L100.4015,52.649 C100.4015,56.91225 96.98,59.139 92.798,59.139 L89.0235,59.139 L89.0235,63.7285 C89.0235,64.65175 88.29025,65.38475 87.36675,65.38475 C86.4165,65.38475 85.68325,64.65175 85.68325,63.7285 L85.68325,47.924 L85.68325,47.924 Z M92.9065,56.12475 C95.432,56.12475 97.0075,54.71275 97.0075,52.73025 L97.0075,52.676 C97.0075,50.449 95.405,49.2815 92.9065,49.2815 L89.024,49.2815 L89.024,56.1245 L92.9065,56.12475 L92.9065,56.12475 L92.9065,56.12475 Z" id="Shape" fill="#FFFFFF"></path>
            </g>
        </g>
    </g>
</svg>