<?xml version="1.0" encoding="UTF-8"?>
<svg width="93px" height="125px" viewBox="0 0 93 125" version="1.1" xmlns="http://www.w3.org/2000/svg" xmlns:xlink="http://www.w3.org/1999/xlink">
    <!-- Generator: Sketch 45.2 (43514) - http://www.bohemiancoding.com/sketch -->
    <title>tree 2</title>
    <desc>Created with Sketch.</desc>
    <defs></defs>
    <g id="Page-1-Copy" stroke="none" stroke-width="1" fill="none" fill-rule="evenodd">
        <g id="Artboard" transform="translate(-331.000000, -533.000000)">
            <g id="tree-2" transform="translate(331.000000, 533.000000)">
                <polygon id="Shape" fill="#D68231" points="82.07225 72.059 76.7715 65.33175 53.49825 83.6695 53.49825 51.0305 37.59675 51.0305 37.59675 94.89 16.284 77.51875 10.87275 84.158 37.59675 105.93925 37.59675 124.2695 53.49825 124.2695 53.49825 94.57375"></polygon>
                <path d="M16.284,77.51875 L10.87275,84.15775 L22.89075,93.953 C25.5375,92.50925 27.58625,90.2605 28.62925,87.581 L16.284,77.51875 L16.284,77.51875 Z" id="Shape" fill="#000000" opacity="0.2"></path>
                <path d="M76.7715,65.33175 L64.17025,75.26075 C65.07425,78.00475 67.019,80.341 69.5915,81.8935 L82.072,72.05925 L76.7715,65.33175 L76.7715,65.33175 Z" id="Shape" fill="#000000" opacity="0.2"></path>
                <path d="M37.59675,51.0305 L37.59675,77.92525 C40.2025,78.28625 42.85925,78.473 45.54725,78.473 C48.23575,78.473 50.89225,78.28625 53.49825,77.92525 L53.49825,51.0305 L37.59675,51.0305 L37.59675,51.0305 Z" id="Shape" fill="#000000" opacity="0.2"></path>
                <ellipse id="Oval" fill="#00AD68" cx="45.54775" cy="35.891" rx="42.707" ry="35.891"></ellipse>
                <ellipse id="Oval" fill="#7CDFA8" cx="79.42125" cy="68.69525" rx="13.4035" ry="12.14375"></ellipse>
                <ellipse id="Oval" fill="#218649" cx="13.57875" cy="80.839" rx="13.4035" ry="12.14375"></ellipse>
                <path d="M27.269,46.66775 C24.87725,44.2755 17.08025,41.898 16.682,42.29625 C16.284,42.6945 18.66175,50.49125 21.0535,52.8835 C23.44575,55.27525 26.77625,55.82325 28.4925,54.10675 C30.20875,52.3905 29.661,49.06 27.269,46.66775 L27.269,46.66775 Z" id="Shape" fill="#7CDFA8"></path>
                <path d="M61.40225,50.0015 C63.79425,47.6095 66.17175,39.8125 65.77375,39.4145 C65.3755,39.01625 57.5785,41.394 55.18675,43.786 C52.79475,46.17825 52.24675,49.5085 53.96325,51.22475 C55.6795,52.94125 59.01025,52.39375 61.40225,50.0015 L61.40225,50.0015 Z" id="Shape" fill="#218649"></path>
                <path d="M40.63225,22.24075 C40.63225,18.858 36.80025,11.66325 36.2375,11.66325 C35.6745,11.66325 31.8425,18.85775 31.8425,22.24075 C31.8425,25.62375 33.8105,28.366 36.2375,28.366 C38.66475,28.366 40.63225,25.624 40.63225,22.24075 L40.63225,22.24075 Z" id="Shape" fill="#218649"></path>
                <path d="M70.69675,28.9545 C73.089,26.5625 75.4665,18.7655 75.0685,18.3675 C74.6705,17.9695 66.87325,20.34725 64.4815,22.73875 C62.08925,25.131 61.54175,28.46175 63.258,30.17775 C64.9745,31.89425 68.305,31.34675 70.69675,28.9545 L70.69675,28.9545 Z" id="Shape" fill="#7CDFA8"></path>
            </g>
        </g>
    </g>
</svg>