<?xml version="1.0" encoding="UTF-8"?>
<svg width="52px" height="73px" viewBox="0 0 52 73" version="1.1" xmlns="http://www.w3.org/2000/svg" xmlns:xlink="http://www.w3.org/1999/xlink">
    <!-- Generator: Sketch 45.2 (43514) - http://www.bohemiancoding.com/sketch -->
    <title>tree 3</title>
    <desc>Created with Sketch.</desc>
    <defs></defs>
    <g id="Page-1-Copy" stroke="none" stroke-width="1" fill="none" fill-rule="evenodd">
        <g id="Artboard" transform="translate(-1018.000000, -585.000000)">
            <g id="tree-3" transform="translate(1017.853761, 585.000000)">
                <polygon id="Shape" fill="#D68231" points="43.9205109 42.41275 41.4457609 39.1485 29.5055109 48.20025 29.5055109 29 20.4782609 29 20.4782609 72.237 29.5055109 72.237 29.5055109 53.34075"></polygon>
                <ellipse id="Oval" fill="#7CDFA8" cx="44.0875109" cy="38.89275" rx="7.60925" ry="6.89275"></ellipse>
                <path d="M20.4782609,29 L20.4782609,44.26825 C21.9575109,44.473 23.4657609,44.57925 24.9917609,44.57925 C26.5180109,44.57925 28.0260109,44.473 29.5055109,44.26825 L29.5055109,29 L20.4782609,29 L20.4782609,29 Z" id="Shape" fill="#000000" opacity="0.2"></path>
                <ellipse id="Oval" fill="#00AD68" cx="24.7230109" cy="20.375" rx="24.24475" ry="20.375"></ellipse>
                <path d="M36.8396072,23.5332582 C39.2096072,21.1627582 41.5653572,13.4375082 41.1711072,13.0435082 C40.7766072,12.6490082 33.0511072,15.0047582 30.6813572,17.3750082 C28.3113572,19.7455082 27.7683572,23.0447582 29.4691072,24.7450082 C31.1693572,26.4460082 34.4696072,25.9030082 36.8396072,23.5332582 L36.8396072,23.5332582 Z" id="Shape" fill="#7CDFA8"></path>
            </g>
        </g>
    </g>
</svg>