<?xml version="1.0" encoding="UTF-8"?>
<svg width="1365px" height="1484px" viewBox="0 0 1365 1484" version="1.1" xmlns="http://www.w3.org/2000/svg" xmlns:xlink="http://www.w3.org/1999/xlink">
    <!-- Generator: Sketch 45.2 (43514) - http://www.bohemiancoding.com/sketch -->
    <title>3flags</title>
    <desc>Created with Sketch.</desc>
    <defs>
        <path d="M549.923552,202.716505 L632.573888,75.1864534 C633.171452,74.264407 634.142304,74.2650491 634.741364,75.1894025 L645.112219,91.1917051 L680.74605,35.5582555 C681.33816,34.6338229 682.307733,34.6281204 682.903494,35.5582555 L767.304687,167.329925 L767.304688,209.40625 L730.675781,167.105469 L715.304688,193.269531 L688.65625,144.671875 L667.644531,193.269531 L643.976562,167.105469 L620.121094,204.835937 L607.457031,187.566406 L580.402344,231.980469 L549.923552,202.716505 Z" id="path-1"></path>
    </defs>
    <g id="Page-1-Copy" stroke="none" stroke-width="1" fill="none" fill-rule="evenodd">
        <g id="3flags">
            <g id="Group-4" transform="translate(92.000000, 382.000000)">
                <path d="M870.976288,689.863302 L1102.14062,689.863302 L861.648437,505.492187 L735.457031,337.398437 L583.39739,203.778294 L500.058925,75.1864534 C499.46136,74.264407 498.490509,74.2650491 497.891449,75.1894025 L487.520594,91.1917051 L451.886762,35.5582555 C451.294653,34.6338229 450.32508,34.6281204 449.729318,35.5582555 L30.4921875,690.09375 L871.123893,690.09375 L870.976288,689.863302 Z" id="Mountains" fill="#A4A9AD" transform="translate(566.316406, 362.478270) scale(-1, 1) translate(-566.316406, -362.478270) "></path>
                <path d="M292.153807,477.293364 L270.984375,505.492187 L30.4921875,689.863302 L261.656525,689.863302 L261.50892,690.09375 L1102.14062,690.09375 L944.557968,444.067254 L895.472807,451.404935 L863.480376,451.404935 L836.099331,441.789062 L828.350691,451.404935 L807.455824,451.404935 L787.747821,441.789062 L774.563794,455.558962 L761.716172,451.404935 L750.191488,455.558962 L736.856269,441.789062 L729.564988,451.404935 L705.88439,468.761887 L699.080707,455.558962 L687.918886,459.527777 L682.740527,441.789062 L661.641549,459.527777 L640.266644,468.761887 L631.637306,459.527777 L615.459659,468.761887 L596.749529,451.404935 L582.54873,459.527777 L560.232649,459.527777 L549.45637,473.981824 L530.818058,468.761887 L525.579221,455.558962 L511.416221,468.761887 L493.299524,459.527777 L478.078172,464.441548 L461.065184,464.441548 L454.439152,455.558962 L436.20906,464.441548 L416.179773,479.111046 L409.99598,464.441548 L400.671154,473.981824 L385.29861,464.441548 L370.825663,468.761887 L365.428074,479.111046 L334.407058,473.981824 L328.121211,464.441548 L315.409662,468.761887 L295.395494,479.111046 L292.153807,477.293364 Z" id="Combined-Shape" fill="#00AD68"></path>
                <path d="M292.462554,476.882097 L270.984375,505.492187 L30.4921875,689.863302 L261.656525,689.863302 L261.50892,690.09375 L1102.14062,690.09375 L944.536134,444.033166 L934.1333,456.94283 L904.056835,456.94283 L875.688765,443.101562 L856.711429,462.922214 L838.218321,456.94283 L821.629474,462.922214 L802.434509,443.101562 L791.939302,456.94283 L757.853004,481.926753 L748.059655,462.922214 L731.99312,468.635002 L724.539293,443.101562 L694.169027,468.635002 L663.401587,481.926753 L650.980355,468.635002 L627.693946,481.926753 L600.762234,456.94283 L580.321337,468.635002 L548.199149,468.635002 L532.687572,489.440429 L505.859234,481.926753 L498.318355,462.922214 L477.931865,481.926753 L451.854351,468.635002 L429.944451,475.707976 L405.455636,475.707976 L395.918002,462.922214 L369.677265,475.707976 L340.846732,496.823527 L331.945665,475.707976 L318.523335,489.440429 L296.395805,475.707976 L292.462554,476.882097 Z" id="Combined-Shape" fill="#218649"></path>
                <g id="Combined-Shape">
                    <use fill="#FFFFFF" fill-rule="evenodd" xlink:href="#path-1"></use>
                    <path stroke="#A4A9AD" stroke-width="2" d="M551.211942,202.567226 L580.196363,230.396382 L607.380099,185.770467 L620.059907,203.06147 L643.834927,165.458242 L667.343464,191.446058 L688.549889,142.398069 L715.334657,191.244347 L730.519487,165.397337 L766.304688,206.723767 L766.304687,167.622725 L682.061418,36.0976144 C681.860834,35.7844518 681.788626,35.7845835 681.588126,36.0976144 L645.11716,93.0380438 L633.902186,75.7332607 C633.697107,75.4168222 633.616293,75.4167297 633.413065,75.7303116 L551.211942,202.567226 Z"></path>
                </g>
                <g id="Group-2" transform="translate(651.000000, 47.000000)">
                    <rect id="Rectangle-path-Copy" fill="#FF5959" transform="translate(22.512037, 13.106019) scale(-1, 1) translate(-22.512037, -13.106019) " x="0.606944444" y="0.551388889" width="43.8101852" height="25.1092593"></rect>
                    <rect id="Rectangle-path" fill="#000000" opacity="0.1" transform="translate(38.682407, 13.106019) scale(-1, 1) translate(-38.682407, -13.106019) " x="32.9476852" y="0.551388889" width="11.4694444" height="25.1092593"></rect>
                </g>
                <path d="M691.625,82.9074074 L691.625,4.06759259 C691.625,1.97314815 693.323148,0.274537037 695.418056,0.274537037 C697.5125,0.274537037 699.211111,1.97268519 699.211111,4.06759259 L699.211111,82.9074074 C699.210648,85.0023148 697.5125,86.700463 695.418056,86.700463 C693.323148,86.700463 691.625,85.0023148 691.625,82.9074074 Z" id="Shape" fill="#333E48" transform="translate(695.418056, 43.487500) scale(-1, 1) translate(-695.418056, -43.487500) "></path>
                <g id="Group-3" transform="translate(0.000000, 621.000000)">
                    <g id="Group" transform="translate(0.000000, 5.000000)">
                        <polygon id="Shape" fill="#FF5959" transform="translate(17.163542, 12.730208) scale(-1, 1) translate(-17.163542, -12.730208) " points="34 12.7304167 0.327083333 0 0.327083333 25.4604167"></polygon>
                        <polygon id="Shape" fill="#000000" opacity="0.2" transform="translate(29.130625, 12.730208) scale(-1, 1) translate(-29.130625, -12.730208) " points="24.26125 0 24.26125 25.4604167 34 21.77875 34 3.68166667"></polygon>
                    </g>
                    <path d="M30.5058333,65.89375 L30.5058333,3.41375 C30.5058333,1.52833333 32.03375,0 33.9195833,0 C35.8054167,0 37.3333333,1.52833333 37.3333333,3.41375 L37.3333333,65.89375 C37.3329167,67.7791667 35.805,69.3075 33.9195833,69.3075 C32.03375,69.3075 30.5058333,67.7791667 30.5058333,65.89375 Z" id="Shape" fill="#333E48" transform="translate(33.919583, 34.653750) scale(-1, 1) translate(-33.919583, -34.653750) "></path>
                </g>
                <g id="Group-3-Copy" transform="translate(260.000000, 410.000000)">
                    <g id="Group" transform="translate(0.000000, 5.000000)">
                        <polygon id="Shape" fill="#FF5959" transform="translate(17.163542, 12.730208) scale(-1, 1) translate(-17.163542, -12.730208) " points="34 12.7304167 0.327083333 0 0.327083333 25.4604167"></polygon>
                        <polygon id="Shape" fill="#000000" opacity="0.2" transform="translate(29.130625, 12.730208) scale(-1, 1) translate(-29.130625, -12.730208) " points="24.26125 0 24.26125 25.4604167 34 21.77875 34 3.68166667"></polygon>
                    </g>
                    <path d="M30.5058333,65.89375 L30.5058333,3.41375 C30.5058333,1.52833333 32.03375,0 33.9195833,0 C35.8054167,0 37.3333333,1.52833333 37.3333333,3.41375 L37.3333333,65.89375 C37.3329167,67.7791667 35.805,69.3075 33.9195833,69.3075 C32.03375,69.3075 30.5058333,67.7791667 30.5058333,65.89375 Z" id="Shape" fill="#333E48" transform="translate(33.919583, 34.653750) scale(-1, 1) translate(-33.919583, -34.653750) "></path>
                </g>
                <g id="Group-3-Copy-2" transform="translate(518.000000, 135.000000)">
                    <g id="Group" transform="translate(0.000000, 5.000000)">
                        <polygon id="Shape" fill="#FF5959" transform="translate(17.163542, 12.730208) scale(-1, 1) translate(-17.163542, -12.730208) " points="34 12.7304167 0.327083333 0 0.327083333 25.4604167"></polygon>
                        <polygon id="Shape" fill="#000000" opacity="0.2" transform="translate(29.130625, 12.730208) scale(-1, 1) translate(-29.130625, -12.730208) " points="24.26125 0 24.26125 25.4604167 34 21.77875 34 3.68166667"></polygon>
                    </g>
                    <path d="M30.5058333,65.89375 L30.5058333,3.41375 C30.5058333,1.52833333 32.03375,0 33.9195833,0 C35.8054167,0 37.3333333,1.52833333 37.3333333,3.41375 L37.3333333,65.89375 C37.3329167,67.7791667 35.805,69.3075 33.9195833,69.3075 C32.03375,69.3075 30.5058333,67.7791667 30.5058333,65.89375 Z" id="Shape" fill="#333E48" transform="translate(33.919583, 34.653750) scale(-1, 1) translate(-33.919583, -34.653750) "></path>
                </g>
            </g>
            <g id="path" transform="translate(148.000000, 471.000000)" stroke-linecap="round" stroke-linejoin="round" stroke-dasharray="15,15">
                <path d="M0.640625,592.960938 C58.4155703,557.233683 102.33858,533.535141 132.409653,521.865313 C177.516262,504.36057 231.29722,482.518654 250.371606,451.630632 C269.445993,420.742609 286.712076,373.653292 303.450355,357.892598 C320.188634,342.131904 349.249994,336.716174 359.154356,328.041826 C369.058717,319.367478 391.680866,285.441139 388.229485,271.305164 C384.778104,257.16919 398.79016,224.004725 435.594179,205.14605 C472.398198,186.287375 493.827051,178.131652 500.651789,158.176062 C507.476527,138.220472 525.926728,109.838372 531.448019,94.7248125 C536.969311,79.6112528 557.191097,43.1055575 582.048383,30.7319902 C598.619906,22.4829453 614.83497,12.3827609 630.693575,0.431437023" id="Path-5" stroke="#FFFFFF" stroke-width="10"></path>
                <path d="M0.640625,592.960938 C58.4155703,557.233683 102.33858,533.535141 132.409653,521.865313 C177.516262,504.36057 231.29722,482.518654 250.371606,451.630632 C269.445993,420.742609 286.712076,373.653292 303.450355,357.892598 C320.188634,342.131904 349.249994,336.716174 359.154356,328.041826 C369.058717,319.367478 391.680866,285.441139 388.229485,271.305164 C384.778104,257.16919 398.79016,224.004725 435.594179,205.14605 C472.398198,186.287375 493.827051,178.131652 500.651789,158.176062 C507.476527,138.220472 525.926728,109.838372 531.448019,94.7248125 C536.969311,79.6112528 557.191097,43.1055575 582.048383,30.7319902 C598.619906,22.4829453 614.83497,12.3827609 630.693575,0.431437023" id="Path-5-Copy" stroke="#4A4A4A" stroke-width="8"></path>
            </g>
        </g>
    </g>
</svg>