<?xml version="1.0" encoding="UTF-8"?>
<svg width="50px" height="76px" viewBox="0 0 50 76" version="1.1" xmlns="http://www.w3.org/2000/svg" xmlns:xlink="http://www.w3.org/1999/xlink">
    <!-- Generator: Sketch 45.2 (43514) - http://www.bohemiancoding.com/sketch -->
    <title>hydrant</title>
    <desc>Created with Sketch.</desc>
    <defs></defs>
    <g id="Page-1-Copy" stroke="none" stroke-width="1" fill="none" fill-rule="evenodd">
        <g id="Artboard" transform="translate(-206.000000, -582.000000)">
            <g id="hydrant" transform="translate(206.000000, 582.000000)">
                <path d="M29.6419118,1.63647059 C29.6419118,0.736470588 28.9055882,0 28.0054412,0 L21.7005882,0 C20.8004412,0 20.0641176,0.736470588 20.0641176,1.63647059 L20.0641176,5.23588235 C20.0641176,6.13602941 20.8005882,6.8725 21.7005882,6.8725 L28.0054412,6.8725 C28.9055882,6.8725 29.6420588,6.13602941 29.6420588,5.23588235 L29.6420588,1.63647059 L29.6419118,1.63647059 Z" id="Shape" fill="#A93439"></path>
                <path d="M5.94647059,42.4079412 C5.94647059,41.5111765 5.21264706,40.7770588 4.31558824,40.7770588 L2.41558824,40.7770588 C1.51852941,40.7770588 0.784558824,41.5108824 0.784558824,42.4079412 L0.784558824,47.0726471 C0.784558824,47.9698529 1.51852941,48.7036765 2.41558824,48.7036765 L4.31544118,48.7036765 C5.2125,48.7036765 5.94632353,47.9698529 5.94632353,47.0726471 L5.94632353,42.4079412 L5.94647059,42.4079412 L5.94647059,42.4079412 Z" id="Shape" fill="#FF5959"></path>
                <path d="M9.84205882,39.0005882 C9.84205882,37.9283824 8.96485294,37.0511765 7.89264706,37.0511765 L6.14044118,37.0511765 C5.06823529,37.0511765 4.19102941,37.9283824 4.19102941,39.0005882 L4.19102941,50.4798529 C4.19102941,51.5520588 5.06823529,52.4292647 6.14044118,52.4292647 L7.89264706,52.4292647 C8.96485294,52.4292647 9.84205882,51.5520588 9.84205882,50.4798529 L9.84205882,39.0005882 L9.84205882,39.0005882 Z" id="Shape" fill="#A93439"></path>
                <path d="M43.7594118,42.4079412 C43.7594118,41.5111765 44.4932353,40.7770588 45.3902941,40.7770588 L47.2901471,40.7770588 C48.1872059,40.7770588 48.9211765,41.5108824 48.9211765,42.4079412 L48.9211765,47.0726471 C48.9211765,47.9698529 48.1872059,48.7036765 47.2901471,48.7036765 L45.3902941,48.7036765 C44.4932353,48.7036765 43.7594118,47.9698529 43.7594118,47.0726471 L43.7594118,42.4079412 L43.7594118,42.4079412 Z" id="Shape" fill="#FF5959"></path>
                <path d="M39.8638235,39.0005882 C39.8638235,37.9283824 40.7410294,37.0511765 41.8132353,37.0511765 L43.5654412,37.0511765 C44.6376471,37.0511765 45.5148529,37.9283824 45.5148529,39.0005882 L45.5148529,50.4798529 C45.5148529,51.5520588 44.6376471,52.4292647 43.5654412,52.4292647 L41.8132353,52.4292647 C40.7410294,52.4292647 39.8638235,51.5520588 39.8638235,50.4798529 L39.8638235,39.0005882 L39.8638235,39.0005882 Z" id="Shape" fill="#A93439"></path>
                <path d="M45.7773529,20.6166176 C45.0995588,20.6166176 44.55,20.0670588 44.55,19.3892647 L44.55,16.9198529 C44.55,16.2420588 45.0995588,15.6925 45.7773529,15.6925 C46.4551471,15.6925 47.0047059,16.2420588 47.0047059,16.9198529 L47.0047059,19.3892647 C47.0047059,20.0672059 46.4551471,20.6166176 45.7773529,20.6166176 L45.7773529,20.6166176 Z" id="Shape" fill="#FF5959"></path>
                <path d="M3.92867647,20.6166176 C3.25088235,20.6166176 2.70132353,20.0670588 2.70132353,19.3892647 L2.70132353,16.9198529 C2.70132353,16.2420588 3.25088235,15.6925 3.92867647,15.6925 C4.60647059,15.6925 5.15602941,16.2420588 5.15602941,16.9198529 L5.15602941,19.3892647 C5.15617647,20.0672059 4.60661765,20.6166176 3.92867647,20.6166176 L3.92867647,20.6166176 Z" id="Shape" fill="#FF5959"></path>
                <path d="M41.2286765,19.8119118 C41.2286765,10.7679412 33.8969118,3.43617647 24.8529412,3.43617647 C15.8091176,3.43617647 8.47735294,10.7679412 8.47735294,19.8119118 L41.2286765,19.8119118 L41.2286765,19.8119118 Z" id="Shape" fill="#FF5959"></path>
                <rect id="Rectangle-path" fill="#FF5959" x="7.75926471" y="25.4989706" width="34.1857353" height="42.5141176"></rect>
                <rect id="Rectangle-path" fill="#000000" opacity="0.2" x="7.75926471" y="60.0726471" width="34.1857353" height="3.92764706"></rect>
                <path d="M35.8673529,30.3639706 C35.1895588,30.3639706 34.64,29.8144118 34.64,29.1366176 L34.64,26.6672059 C34.64,25.9894118 35.1895588,25.4398529 35.8673529,25.4398529 C36.5451471,25.4398529 37.0947059,25.9894118 37.0947059,26.6672059 L37.0947059,29.1366176 C37.0948529,29.8144118 36.5452941,30.3639706 35.8673529,30.3639706 L35.8673529,30.3639706 Z" id="Shape" fill="#A93439"></path>
                <path d="M24.8523529,30.3639706 C24.1745588,30.3639706 23.625,29.8144118 23.625,29.1366176 L23.625,26.6672059 C23.625,25.9894118 24.1745588,25.4398529 24.8523529,25.4398529 C25.5301471,25.4398529 26.0797059,25.9894118 26.0797059,26.6672059 L26.0797059,29.1366176 C26.0797059,29.8144118 25.5301471,30.3639706 24.8523529,30.3639706 L24.8523529,30.3639706 Z" id="Shape" fill="#A93439"></path>
                <path d="M12.7661765,30.3639706 C12.0883824,30.3639706 11.5388235,29.8144118 11.5388235,29.1366176 L11.5388235,26.6672059 C11.5388235,25.9894118 12.0883824,25.4398529 12.7661765,25.4398529 C13.4439706,25.4398529 13.9935294,25.9894118 13.9935294,26.6672059 L13.9935294,29.1366176 C13.9936765,29.8144118 13.4441176,30.3639706 12.7661765,30.3639706 L12.7661765,30.3639706 Z" id="Shape" fill="#A93439"></path>
                <rect id="Rectangle-path" fill="#000000" opacity="0.2" x="7.75926471" y="25.4989706" width="34.1857353" height="5.77044118"></rect>
                <path d="M49.6757353,21.1436765 C49.6757353,19.5352941 48.3598529,18.2195588 46.7516176,18.2195588 L2.95441176,18.2195588 C1.34617647,18.2195588 0.0302941176,19.5352941 0.0302941176,21.1436765 L0.0302941176,24.1329412 C0.0302941176,25.7411765 1.34617647,27.0569118 2.95441176,27.0569118 L46.7514706,27.0569118 C48.3597059,27.0569118 49.6755882,25.7411765 49.6755882,24.1329412 L49.6755882,21.1436765 L49.6757353,21.1436765 Z" id="Shape" fill="#A93439"></path>
                <path d="M47.5038235,70.8194118 L47.5038235,74.3192647 C47.5038235,74.8554412 47.0652941,75.2939706 46.5291176,75.2939706 L3.17676471,75.2939706 C2.64058824,75.2939706 2.20191176,74.8554412 2.20191176,74.3192647 L2.20191176,70.8194118 C2.20191176,68.8386765 3.8075,67.2329412 5.78838235,67.2329412 L43.9172059,67.2329412 C45.8982353,67.2329412 47.5038235,68.8388235 47.5038235,70.8194118 L47.5038235,70.8194118 Z" id="Shape" fill="#A93439"></path>
                <circle id="Oval" fill="#A93439" cx="24.8529412" cy="44.7398529" r="7.68911765"></circle>
                <circle id="Oval" fill="#FF5959" cx="24.8529412" cy="44.7398529" r="3.96367647"></circle>
                <path d="M43.8944118,60.6242647 C43.8944118,61.2542647 43.3789706,61.7698529 42.7488235,61.7698529 L6.95705882,61.7698529 C6.32705882,61.7698529 5.81147059,61.2544118 5.81147059,60.6242647 L5.81147059,58.865 C5.81147059,58.2347059 6.32691176,57.7194118 6.95705882,57.7194118 L42.7489706,57.7194118 C43.3789706,57.7194118 43.8945588,58.2347059 43.8945588,58.865 L43.8945588,60.6242647 L43.8944118,60.6242647 Z" id="Shape" fill="#A93439"></path>
                <path d="M24.8523529,15.3669118 C24.1745588,15.3669118 23.625,14.8173529 23.625,14.1395588 L23.625,7.64808824 C23.625,6.97029412 24.1745588,6.42073529 24.8523529,6.42073529 C25.5301471,6.42073529 26.0797059,6.97029412 26.0797059,7.64808824 L26.0797059,14.1395588 C26.0797059,14.8175 25.5301471,15.3669118 24.8523529,15.3669118 L24.8523529,15.3669118 Z" id="Shape" fill="#000000"></path>
                <path d="M16.1792647,15.3669118 C15.5014706,15.3669118 14.9519118,14.8173529 14.9519118,14.1395588 L14.9519118,10.8664706 C14.9519118,10.1886765 15.5014706,9.63911765 16.1792647,9.63911765 C16.8570588,9.63911765 17.4066176,10.1886765 17.4066176,10.8664706 L17.4066176,14.1395588 C17.4066176,14.8175 16.8570588,15.3669118 16.1792647,15.3669118 L16.1792647,15.3669118 Z" id="Shape" fill="#000000"></path>
                <path d="M33.5251471,15.3669118 C32.8473529,15.3669118 32.2977941,14.8173529 32.2977941,14.1395588 L32.2977941,10.8664706 C32.2977941,10.1886765 32.8473529,9.63911765 33.5251471,9.63911765 C34.2029412,9.63911765 34.7525,10.1886765 34.7525,10.8664706 L34.7525,14.1395588 C34.7525,14.8175 34.2029412,15.3669118 33.5251471,15.3669118 L33.5251471,15.3669118 Z" id="Shape" fill="#000000"></path>
            </g>
        </g>
    </g>
</svg>