<?xml version="1.0" encoding="UTF-8"?>
<svg width="448px" height="226px" viewBox="0 0 448 226" version="1.1" xmlns="http://www.w3.org/2000/svg" xmlns:xlink="http://www.w3.org/1999/xlink">
    <!-- Generator: Sketch 45.2 (43514) - http://www.bohemiancoding.com/sketch -->
    <title>logo</title>
    <desc>Created with Sketch.</desc>
    <defs>
        <rect id="path-1" x="0" y="0" width="448" height="12" rx="6"></rect>
        <rect id="path-2" x="0" y="214" width="448" height="12" rx="6"></rect>
    </defs>
    <g id="Page-1-Copy" stroke="none" stroke-width="1" fill="none" fill-rule="evenodd">
        <g id="Artboard" transform="translate(-56.000000, -46.000000)">
            <g id="logo" transform="translate(56.000000, 46.000000)">
                <rect id="Rectangle-2" fill="#4A4A4A" x="5" y="10" width="438" height="204"></rect>
                <text id="RETIREMENT" stroke="#FFFFFF" font-family="GothamLight, Gotham Light" font-size="56" font-weight="normal" letter-spacing="-1.38" fill="#FFFFFF">
                    <tspan x="44" y="68">RETIREMENT</tspan>
                </text>
                <text id="ROAD" stroke="#FFFFFF" stroke-width="3" font-family="GothamLight, Gotham Light" font-size="118" font-weight="normal" letter-spacing="0.519999981" fill="#FFFFFF">
                    <tspan x="38" y="195">ROA</tspan>
                    <tspan x="318.394" y="195">D</tspan>
                </text>
                <g id="Rectangle">
                    <use fill="#D8D8D8" fill-rule="evenodd" xlink:href="#path-1"></use>
                    <rect stroke="#4A4A4A" stroke-width="2" x="1" y="1" width="446" height="10" rx="5"></rect>
                </g>
                <g id="Rectangle-Copy">
                    <use fill="#D8D8D8" fill-rule="evenodd" xlink:href="#path-2"></use>
                    <rect stroke="#4A4A4A" stroke-width="2" x="1" y="215" width="446" height="10" rx="5"></rect>
                </g>
                <g id="Group" transform="translate(9.000000, 86.000000)" fill="#FFB819">
                    <rect id="Rectangle-Copy-2" x="0" y="0" width="40" height="8" rx="4"></rect>
                    <rect id="Rectangle-Copy-4" x="130" y="0" width="40" height="8" rx="4"></rect>
                    <rect id="Rectangle-Copy-6" x="260" y="0" width="40" height="8" rx="4"></rect>
                    <rect id="Rectangle-Copy-3" x="65" y="0" width="40" height="8" rx="4"></rect>
                    <rect id="Rectangle-Copy-5" x="195" y="0" width="40" height="8" rx="4"></rect>
                    <rect id="Rectangle-Copy-7" x="325" y="0" width="40" height="8" rx="4"></rect>
                    <rect id="Rectangle-Copy-8" x="390" y="0" width="40" height="8" rx="4"></rect>
                </g>
            </g>
        </g>
    </g>
</svg>