<?xml version="1.0" encoding="UTF-8"?>
<svg width="41px" height="128px" viewBox="0 0 41 128" version="1.1" xmlns="http://www.w3.org/2000/svg" xmlns:xlink="http://www.w3.org/1999/xlink">
    <!-- Generator: Sketch 45.2 (43514) - http://www.bohemiancoding.com/sketch -->
    <title>street-light</title>
    <desc>Created with Sketch.</desc>
    <defs></defs>
    <g id="Page-1-Copy" stroke="none" stroke-width="1" fill="none" fill-rule="evenodd">
        <g id="Artboard" transform="translate(-116.000000, -530.000000)">
            <g id="street-light" transform="translate(116.000000, 530.000000)">
                <rect id="SVGCleanerId_0" fill="#0071CE" x="16.3335" y="44.43025" width="8.83" height="75.87575"></rect>
                <rect id="SVGCleanerId_0_1_" fill="#0071CE" x="16.3335" y="44.43025" width="8.83" height="75.87575"></rect>
                <rect id="Rectangle-path" fill="#00B3E3" x="16.3335" y="98.5025" width="8.83" height="21.8065"></rect>
                <rect id="Rectangle-path" fill="#000000" opacity="0.2" x="16.3335" y="44.43025" width="8.83" height="9.28675"></rect>
                <path d="M31.7735,122.568 L31.7735,119.98075 C31.7735,118.6075 30.6605,117.4945 29.28675,117.4945 L12.21325,117.4945 C10.84,117.4945 9.7265,118.6075 9.7265,119.98075 L9.7265,122.568 L31.7735,122.568 L31.7735,122.568 Z" id="Shape" fill="#2B3E49"></path>
                <path d="M36.20425,15.45425 C36.20425,6.919 29.285,0 20.74975,0 C12.2145,0 5.2955,6.919 5.2955,15.45425 L36.20425,15.45425 L36.20425,15.45425 Z" id="Shape" fill="#A4A9AD"></path>
                <path d="M36.20425,15.45425 C36.20425,12.4625 35.35175,9.67075 33.87975,7.3045 L7.6205,7.3045 C6.14875,9.6705 5.296,12.4625 5.296,15.45425 L36.20425,15.45425 L36.20425,15.45425 Z" id="Shape" fill="#000000" opacity="0.2"></path>
                <polygon id="Shape" fill="#F2D383" points="36.20425 13.52225 5.29575 13.52225 10.1865 44.431 31.3135 44.431"></polygon>
                <path d="M33.759,31.04025 L7.741,31.04025 C6.60125,31.04025 5.67725,30.11625 5.67725,28.9765 C5.67725,27.83675 6.60125,26.91275 7.741,26.91275 L33.759,26.91275 C34.899,26.91275 35.82275,27.83675 35.82275,28.9765 C35.82275,30.11625 34.89875,31.04025 33.759,31.04025 L33.759,31.04025 Z" id="Shape" fill="#333E48"></path>
                <path d="M36.20425,17.92475 L5.29575,17.92475 C2.8645,17.92475 0.89325,15.95375 0.89325,13.52225 C0.89325,11.091 2.8645,9.11975 5.29575,9.11975 L36.204,9.11975 C38.6355,9.11975 40.6065,11.091 40.6065,13.52225 C40.607,15.9535 38.63575,17.92475 36.20425,17.92475 L36.20425,17.92475 Z" id="Shape" fill="#333E48"></path>
                <path d="M31.3135,48.8335 L10.18625,48.8335 C7.75475,48.8335 5.78375,46.8625 5.78375,44.431 C5.78375,41.99975 7.75475,40.0285 10.18625,40.0285 L31.3135,40.0285 C33.745,40.0285 35.716,41.99975 35.716,44.431 C35.716,46.86225 33.74525,48.8335 31.3135,48.8335 L31.3135,48.8335 Z" id="Shape" fill="#333E48"></path>
                <path d="M35.477,128 C36.18275,128 36.7555,127.4275 36.7555,126.7215 L36.7555,125.81625 C36.7555,123.8225 35.1395,122.20575 33.1455,122.20575 L8.35525,122.20575 C6.3615,122.20575 4.74475,123.82225 4.74475,125.81625 L4.74475,126.7215 C4.74475,127.42725 5.31725,128 6.0235,128 L35.477,128 L35.477,128 Z" id="Shape" fill="#A4A9AD"></path>
            </g>
        </g>
    </g>
</svg>