<?xml version="1.0" encoding="UTF-8"?>
<svg width="55px" height="111px" viewBox="0 0 55 111" version="1.1" xmlns="http://www.w3.org/2000/svg" xmlns:xlink="http://www.w3.org/1999/xlink">
    <!-- Generator: Sketch 45.2 (43514) - http://www.bohemiancoding.com/sketch -->
    <title>tree 1</title>
    <desc>Created with Sketch.</desc>
    <defs></defs>
    <g id="Page-1-Copy" stroke="none" stroke-width="1" fill="none" fill-rule="evenodd">
        <g id="Artboard" transform="translate(-449.000000, -547.000000)">
            <g id="tree-1" transform="translate(449.000000, 547.000000)">
                <rect id="Rectangle-path" fill="#D68231" x="18.1582952" y="59.8113511" width="18.3460437" height="50.3138401"></rect>
                <path d="M18.1597029,59.8078318 L18.1597029,84.2922161 C21.0208833,85.3367405 24.1101135,85.9075688 27.3330767,85.9075688 C30.5560398,85.9075688 33.6445662,85.3367405 36.5064504,84.2922161 L36.5064504,59.8078318 L18.1597029,59.8078318 L18.1597029,59.8078318 Z" id="Shape" fill="#000000" opacity="0.2"></path>
                <path d="M54.0726201,51.296084 C54.0726201,36.5277476 42.1007092,0.808391113 27.3330767,0.808391113 C12.5647402,0.808391113 0.592829346,36.5277476 0.592829346,51.296084 C0.592829346,66.0644204 12.5647402,78.0356274 27.3330767,78.0356274 C42.1007092,78.0349236 54.0726201,66.0637166 54.0726201,51.296084 L54.0726201,51.296084 Z" id="Shape" fill="#218649"></path>
            </g>
        </g>
    </g>
</svg>